<svg width="500" height="500" viewBox="0 0 500 500" fill="none" xmlns="http://www.w3.org/2000/svg">
<rect width="500" height="500" fill="black"/>
<path fill-rule="evenodd" clip-rule="evenodd" d="M139.541 339.246C192.261 391.967 277.739 391.967 330.459 339.246C383.18 286.525 383.18 201.048 330.459 148.327C277.739 95.6066 192.261 95.6066 139.541 148.327C86.8198 201.048 86.8198 286.525 139.541 339.246ZM143.076 335.711C193.844 386.479 276.156 386.479 326.924 335.711C377.692 284.942 377.692 202.631 326.924 151.863C276.156 101.095 193.844 101.095 143.076 151.863C92.308 202.631 92.308 284.942 143.076 335.711Z" fill="white"/>
<path fill-rule="evenodd" clip-rule="evenodd" d="M329.459 119.327C329.459 135.896 316.028 149.327 299.459 149.327C316.028 149.327 329.459 162.759 329.459 179.327C329.459 162.759 342.891 149.327 359.459 149.327C342.891 149.327 329.459 135.896 329.459 119.327Z" fill="white"/>
</svg>
