<svg width="750" height="500" viewBox="0 0 750 500" fill="none" xmlns="http://www.w3.org/2000/svg">
<rect width="750" height="500" fill="black"/>
<path fill-rule="evenodd" clip-rule="evenodd" d="M138.459 345.378C191.18 398.099 276.657 398.099 329.378 345.378C382.099 292.657 382.099 207.18 329.378 154.459C276.657 101.739 191.18 101.739 138.459 154.459C85.7386 207.18 85.7386 292.657 138.459 345.378ZM141.995 341.843C192.763 392.611 275.075 392.611 325.843 341.843C376.611 291.075 376.611 208.763 325.843 157.995C275.075 107.227 192.763 107.227 141.995 157.995C91.2268 208.763 91.2268 291.075 141.995 341.843Z" fill="white"/>
<path fill-rule="evenodd" clip-rule="evenodd" d="M328.378 125.459C328.378 142.028 314.947 155.459 298.378 155.459C314.947 155.459 328.378 168.891 328.378 185.459C328.378 168.891 341.81 155.459 358.378 155.459C341.81 155.459 328.378 142.028 328.378 125.459Z" fill="white"/>
<path d="M428.519 221.332H435.719C435.719 224.692 439.079 226.372 445.799 226.372C452.519 226.372 455.879 224.62 455.879 221.116C455.879 218.38 452.423 217.012 445.511 217.012C434.663 217.012 429.239 213.58 429.239 206.716C429.239 199.18 434.759 195.412 445.799 195.412C450.791 195.412 454.799 196.468 457.823 198.58C460.847 200.692 462.359 203.476 462.359 206.932H455.159C455.159 203.572 452.039 201.892 445.799 201.892C439.559 201.892 436.439 203.5 436.439 206.716C436.439 209.26 439.679 210.532 446.159 210.532C457.439 210.532 463.079 214.06 463.079 221.116C463.079 228.94 457.319 232.852 445.799 232.852C440.567 232.852 436.367 231.796 433.199 229.684C430.079 227.572 428.519 224.788 428.519 221.332Z" fill="white"/>
<path d="M468.158 196.132H504.158V202.612H489.758V232.132H482.558V202.612H468.158V196.132Z" fill="white"/>
<path d="M518.198 196.132H528.998L543.758 232.132H535.982L533.03 224.932H514.022L511.07 232.132H503.438L518.198 196.132ZM516.686 218.452H530.366L523.886 202.612H523.166L516.686 218.452Z" fill="white"/>
<path d="M551.327 232.132V196.132H577.247C584.447 196.132 588.047 199.732 588.047 206.932C588.047 213.22 584.903 216.676 578.615 217.3C579.191 217.972 579.623 218.548 579.911 219.028L588.047 232.132H579.911L570.767 217.372H558.527V232.132H551.327ZM558.527 210.892H577.247C579.647 210.892 580.847 209.692 580.847 207.292V206.212C580.847 203.812 579.647 202.612 577.247 202.612H558.527V210.892Z" fill="white"/>
<path d="M428.519 286.132C428.519 280.708 430.271 276.244 433.775 272.74C437.327 269.188 441.815 267.412 447.239 267.412C452.663 267.412 457.127 269.164 460.631 272.668L455.447 277.852C453.335 275.452 450.599 274.252 447.239 274.252C443.975 274.252 441.287 275.38 439.175 277.636C437.111 279.844 436.079 282.676 436.079 286.132C436.079 289.588 437.111 292.444 439.175 294.7C441.287 296.908 443.975 298.012 447.239 298.012C452.855 298.012 456.431 295.252 457.967 289.732H447.239V283.252H465.743C465.887 284.164 465.959 285.124 465.959 286.132C465.959 291.556 464.183 296.044 460.631 299.596C457.127 303.1 452.663 304.852 447.239 304.852C441.815 304.852 437.327 303.1 433.775 299.596C430.271 296.044 428.519 291.556 428.519 286.132Z" fill="white"/>
<path d="M483.956 268.132H494.756L509.516 304.132H501.74L498.788 296.932H479.78L476.828 304.132H469.196L483.956 268.132ZM482.444 290.452H496.124L489.644 274.612H488.924L482.444 290.452Z" fill="white"/>
<path d="M516.005 298.372L540.053 274.612H516.725V268.132H550.565V273.892L526.445 297.652H551.285V304.132H516.005V298.372Z" fill="white"/>
<path d="M561.03 304.132V268.132H596.31V274.612H568.23V282.892H589.11V289.372H568.23V297.652H596.31V304.132H561.03Z" fill="white"/>
<path d="M606.03 304.132V268.132H631.95C639.15 268.132 642.75 271.732 642.75 278.932C642.75 285.22 639.606 288.676 633.318 289.3C633.894 289.972 634.326 290.548 634.614 291.028L642.75 304.132H634.614L625.47 289.372H613.23V304.132H606.03ZM613.23 282.892H631.95C634.35 282.892 635.55 281.692 635.55 279.292V278.212C635.55 275.812 634.35 274.612 631.95 274.612H613.23V282.892Z" fill="white"/>
</svg>
