<svg width="280" height="180" viewBox="0 0 280 180" fill="none" xmlns="http://www.w3.org/2000/svg">
<rect width="280" height="180" fill="white"/>
<path d="M33 60.92H40.2C40.2 64.28 43.56 65.96 50.28 65.96C57 65.96 60.36 64.208 60.36 60.704C60.36 57.968 56.904 56.6 49.992 56.6C39.144 56.6 33.72 53.168 33.72 46.304C33.72 38.768 39.24 35 50.28 35C55.272 35 59.28 36.056 62.304 38.168C65.328 40.28 66.84 43.064 66.84 46.52H59.64C59.64 43.16 56.52 41.48 50.28 41.48C44.04 41.48 40.92 43.088 40.92 46.304C40.92 48.848 44.16 50.12 50.64 50.12C61.92 50.12 67.56 53.648 67.56 60.704C67.56 68.528 61.8 72.44 50.28 72.44C45.048 72.44 40.848 71.384 37.68 69.272C34.56 67.16 33 64.376 33 60.92Z" fill="black"/>
<path d="M72.6394 35.72H108.639V42.2H94.2394V71.72H87.0394V42.2H72.6394V35.72Z" fill="black"/>
<path d="M122.679 35.72H133.479L148.239 71.72H140.463L137.511 64.52H118.503L115.551 71.72H107.919L122.679 35.72ZM121.167 58.04H134.847L128.367 42.2H127.647L121.167 58.04Z" fill="black"/>
<path d="M155.808 71.72V35.72H181.728C188.928 35.72 192.528 39.32 192.528 46.52C192.528 52.808 189.384 56.264 183.096 56.888C183.672 57.56 184.104 58.136 184.392 58.616L192.528 71.72H184.392L175.248 56.96H163.008V71.72H155.808ZM163.008 50.48H181.728C184.128 50.48 185.328 49.28 185.328 46.88V45.8C185.328 43.4 184.128 42.2 181.728 42.2H163.008V50.48Z" fill="black"/>
<path d="M33 125.72C33 120.296 34.752 115.832 38.256 112.328C41.808 108.776 46.296 107 51.72 107C57.144 107 61.608 108.752 65.112 112.256L59.928 117.44C57.816 115.04 55.08 113.84 51.72 113.84C48.456 113.84 45.768 114.968 43.656 117.224C41.592 119.432 40.56 122.264 40.56 125.72C40.56 129.176 41.592 132.032 43.656 134.288C45.768 136.496 48.456 137.6 51.72 137.6C57.336 137.6 60.912 134.84 62.448 129.32H51.72V122.84H70.224C70.368 123.752 70.44 124.712 70.44 125.72C70.44 131.144 68.664 135.632 65.112 139.184C61.608 142.688 57.144 144.44 51.72 144.44C46.296 144.44 41.808 142.688 38.256 139.184C34.752 135.632 33 131.144 33 125.72Z" fill="black"/>
<path d="M88.4372 107.72H99.2372L113.997 143.72H106.221L103.269 136.52H84.2612L81.3092 143.72H73.6772L88.4372 107.72ZM86.9252 130.04H100.605L94.1252 114.2H93.4052L86.9252 130.04Z" fill="black"/>
<path d="M120.486 137.96L144.534 114.2H121.206V107.72H155.046V113.48L130.926 137.24H155.766V143.72H120.486V137.96Z" fill="black"/>
<path d="M165.511 143.72V107.72H200.791V114.2H172.711V122.48H193.591V128.96H172.711V137.24H200.791V143.72H165.511Z" fill="black"/>
<path d="M210.511 143.72V107.72H236.431C243.631 107.72 247.231 111.32 247.231 118.52C247.231 124.808 244.087 128.264 237.799 128.888C238.375 129.56 238.807 130.136 239.095 130.616L247.231 143.72H239.095L229.951 128.96H217.711V143.72H210.511ZM217.711 122.48H236.431C238.831 122.48 240.031 121.28 240.031 118.88V117.8C240.031 115.4 238.831 114.2 236.431 114.2H217.711V122.48Z" fill="black"/>
</svg>
