<svg width="750" height="500" viewBox="0 0 750 500" fill="none" xmlns="http://www.w3.org/2000/svg">
<path d="M330.6 268.2H337.8C337.8 271.56 341.16 273.24 347.88 273.24C354.6 273.24 357.96 271.488 357.96 267.984C357.96 265.248 354.504 263.88 347.592 263.88C336.744 263.88 331.32 260.448 331.32 253.584C331.32 246.048 336.84 242.28 347.88 242.28C352.872 242.28 356.88 243.336 359.904 245.448C362.928 247.56 364.44 250.344 364.44 253.8H357.24C357.24 250.44 354.12 248.76 347.88 248.76C341.64 248.76 338.52 250.368 338.52 253.584C338.52 256.128 341.76 257.4 348.24 257.4C359.52 257.4 365.16 260.928 365.16 267.984C365.16 275.808 359.4 279.72 347.88 279.72C342.648 279.72 338.448 278.664 335.28 276.552C332.16 274.44 330.6 271.656 330.6 268.2Z" fill="black"/>
<path d="M370.239 243H406.239V249.48H391.839V279H384.639V249.48H370.239V243Z" fill="black"/>
<path d="M420.279 243H431.079L445.839 279H438.063L435.111 271.8H416.103L413.151 279H405.519L420.279 243ZM418.767 265.32H432.447L425.967 249.48H425.247L418.767 265.32Z" fill="black"/>
<path d="M453.408 279V243H479.328C486.528 243 490.128 246.6 490.128 253.8C490.128 260.088 486.984 263.544 480.696 264.168C481.272 264.84 481.704 265.416 481.992 265.896L490.128 279H481.992L472.848 264.24H460.608V279H453.408ZM460.608 257.76H479.328C481.728 257.76 482.928 256.56 482.928 254.16V253.08C482.928 250.68 481.728 249.48 479.328 249.48H460.608V257.76Z" fill="black"/>
<path d="M330.6 333C330.6 327.576 332.352 323.112 335.856 319.608C339.408 316.056 343.896 314.28 349.32 314.28C354.744 314.28 359.208 316.032 362.712 319.536L357.528 324.72C355.416 322.32 352.68 321.12 349.32 321.12C346.056 321.12 343.368 322.248 341.256 324.504C339.192 326.712 338.16 329.544 338.16 333C338.16 336.456 339.192 339.312 341.256 341.568C343.368 343.776 346.056 344.88 349.32 344.88C354.936 344.88 358.512 342.12 360.048 336.6H349.32V330.12H367.824C367.968 331.032 368.04 331.992 368.04 333C368.04 338.424 366.264 342.912 362.712 346.464C359.208 349.968 354.744 351.72 349.32 351.72C343.896 351.72 339.408 349.968 335.856 346.464C332.352 342.912 330.6 338.424 330.6 333Z" fill="black"/>
<path d="M386.037 315H396.837L411.597 351H403.821L400.869 343.8H381.861L378.909 351H371.277L386.037 315ZM384.525 337.32H398.205L391.725 321.48H391.005L384.525 337.32Z" fill="black"/>
<path d="M418.086 345.24L442.134 321.48H418.806V315H452.646V320.76L428.526 344.52H453.366V351H418.086V345.24Z" fill="black"/>
<path d="M463.111 351V315H498.391V321.48H470.311V329.76H491.191V336.24H470.311V344.52H498.391V351H463.111Z" fill="black"/>
<path d="M508.111 351V315H534.031C541.231 315 544.831 318.6 544.831 325.8C544.831 332.088 541.687 335.544 535.399 336.168C535.975 336.84 536.407 337.416 536.695 337.896L544.831 351H536.695L527.551 336.24H515.311V351H508.111ZM515.311 329.76H534.031C536.431 329.76 537.631 328.56 537.631 326.16V325.08C537.631 322.68 536.431 321.48 534.031 321.48H515.311V329.76Z" fill="black"/>
<circle cx="300.543" cy="231.543" r="10" fill="black"/>
<path fill-rule="evenodd" clip-rule="evenodd" d="M201 368.543H205.437C254.2 267.323 336.323 185.2 437.543 136.437V132C334.132 181.327 250.327 265.132 201 368.543Z" fill="black"/>
</svg>
